<svg xmlns="http://www.w3.org/2000/svg" xmlns:lucid="lucid" width="118.4" height="107.23"><path d="M98.38 54.23c-.03-.43-.22-.78-.54-1.04L62.9 21.25c-1.03-.84-2.27-1.26-3.7-1.26-1.42 0-2.65.42-3.68 1.26L20.57 53.2c-.32.25-.5.6-.54 1.03-.03.44.08.82.35 1.15l2.68 3.28c.26.3.6.47 1.02.54h7.13v24.92c0 .84.3 1.57.93 2.2.62.6 1.35.9 2.2.9H53.6V64.8h11.2v22.45h19.28c.84 0 1.57-.3 2.2-.92.6-.6.9-1.34.9-2.18V59.2h7.14c.43-.07.76-.25 1.02-.54l2.68-3.28c.26-.33.38-.7.35-1.15z" lucid:page-tab-id="0_0"/></svg>